<svg height="500pt" viewBox="-31 0 500 500.002" width="500pt" xmlns="http://www.w3.org/2000/svg"><path d="m18.75 456.246094h399.996094v37.5h-399.996094zm0 0" fill="#59c3f0"/><path d="m393.527344 456.246094h25.21875v37.5h-25.21875zm0 0" fill="#21a0d6"/><path d="m18.644531 456.246094h25.214844v37.503906h-25.214844zm0 0" fill="#96dcfa"/><path d="m68.75 6.25h300v362.496094h-300zm0 0" fill="#59c3f0"/><path d="m306.25 6.246094h25v362.5h-25zm0 0" fill="#21a0d6"/><path d="m106.25 6.25h25v362.5h-25zm0 0" fill="#96dcfa"/><path d="m343.746094 6.246094h25v362.5h-25zm0 0" fill="#21a0d6"/><path d="m68.75 6.246094h25v362.5h-25zm0 0" fill="#96dcfa"/><path d="m431.25 456.246094h-425v-24.996094h425zm0 0" fill="#fcd64b"/><path d="m406.136719 431.246094h25.214843v25h-25.214843zm0 0" fill="#f5ab33"/><path d="m6.144531 431.246094h25.214844v25h-25.214844zm0 0" fill="#ffeca6"/><path d="m56.25 393.746094h325v37.496094h-325zm0 0" fill="#59c3f0"/><path d="m356.027344 393.742188h25.21875v37.5h-25.21875zm0 0" fill="#21a0d6"/><path d="m56.199219 393.742188h25.21875v37.503906h-25.21875zm0 0" fill="#96dcfa"/><path d="m393.75 393.746094h-350v-25h350zm0 0" fill="#fcd64b"/><path d="m368.636719 368.746094h25.21875v25h-25.21875zm0 0" fill="#f5ab33"/><path d="m43.644531 368.746094h25.214844v25h-25.214844zm0 0" fill="#ffeca6"/><path d="m218.746094 87.996094 14.054687 28.476562 31.429688 4.566406-22.742188 22.167969 5.367188 31.300781-28.109375-14.78125-28.105469 14.78125 5.367187-31.300781-22.742187-22.167969 31.425781-4.566406zm0 0" fill="#fcd64b"/><path d="m232.804688 116.472656-14.054688-28.476562v71.730468l28.109375 14.78125-5.367187-31.300781 22.738281-22.167969zm0 0" fill="#f5ab33"/><path d="m143.75 368.746094h149.996094v62.5h-149.996094zm0 0" fill="#f05458"/><path d="m243.640625 368.746094h25.21875v63.640625h-25.21875zm0 0" fill="#d9383c"/><path d="m168.640625 368.742188h25.21875v63.644531h-25.21875zm0 0" fill="#f0787b"/><path d="m93.75 431.246094h249.996094v62.5h-249.996094zm0 0" fill="#f05458"/><path d="m293.640625 431.242188h25.214844v62.503906h-25.214844zm0 0" fill="#d9383c"/><path d="m118.640625 431.25h25.21875v62.492188h-25.21875zm0 0" fill="#f0787b"/><g fill="#fcd64b"><path d="m143.75 368.746094h25v62.496094h-25zm0 0"/><path d="m93.75 431.25h25v62.496094h-25zm0 0"/><path d="m318.75 431.25h25v62.496094h-25zm0 0"/><path d="m268.75 368.746094h25v62.496094h-25zm0 0"/><path d="m87.5 56.25h-6.246094v-6.246094c0-6.90625-5.597656-12.503906-12.5-12.503906-6.90625 0-12.5 5.597656-12.5 12.503906v6.246094h-6.25c-6.902344 0-12.5 5.597656-12.5 12.5s5.597656 12.503906 12.5 12.503906h6.25v6.246094c0 6.902344 5.597656 12.5 12.5 12.5s12.5-5.597656 12.5-12.5v-6.246094h6.246094c6.90625 0 12.5-5.601562 12.5-12.503906s-5.59375-12.5-12.5-12.5zm0 0"/></g><path d="m81.25 87.5v-6.246094h6.246094c6.90625 0 12.5-5.601562 12.5-12.503906s-5.59375-12.5-12.5-12.5h-6.246094v-6.246094c0-6.90625-5.597656-12.503906-12.5-12.503906v62.5c6.902344 0 12.5-5.597656 12.5-12.5zm0 0" fill="#f5ab33"/><path d="m387.496094 56.25h-6.25v-6.246094c0-6.90625-5.59375-12.503906-12.5-12.503906-6.902344 0-12.5 5.597656-12.5 12.503906v6.246094h-6.25c-6.902344 0-12.5 5.597656-12.5 12.5s5.597656 12.503906 12.5 12.503906h6.25v6.246094c0 6.902344 5.59375 12.5 12.5 12.5s12.5-5.597656 12.5-12.5v-6.246094h6.25c6.902344 0 12.5-5.601562 12.5-12.503906s-5.597656-12.5-12.5-12.5zm0 0" fill="#fcd64b"/><path d="m381.246094 87.5v-6.246094h6.25c6.902344 0 12.5-5.601562 12.5-12.503906s-5.59375-12.5-12.5-12.5h-6.25v-6.246094c0-6.90625-5.59375-12.503906-12.5-12.503906v62.5c6.90625 0 12.5-5.597656 12.5-12.5zm0 0" fill="#f5ab33"/><path d="m270.171875 119.109375c-.734375-2.261719-2.691406-3.910156-5.042969-4.253906l-28.179687-4.09375-12.597657-25.53125c-1.050781-2.132813-3.222656-3.484375-5.605468-3.484375-2.378906 0-4.550782 1.351562-5.601563 3.484375l-12.601562 25.53125-28.175781 4.09375c-2.355469.34375-4.308594 1.992187-5.046876 4.253906-.734374 2.261719-.121093 4.746094 1.582032 6.40625l20.386718 19.875-4.808593 28.0625c-.402344 2.34375.558593 4.710937 2.484375 6.109375 1.925781 1.398438 4.476562 1.585938 6.582031.476562l25.199219-13.25 25.199218 13.25c.914063.480469 1.914063.71875 2.910157.71875 1.296875 0 2.582031-.402343 3.671875-1.195312 1.925781-1.398438 2.890625-3.769531 2.488281-6.109375l-4.8125-28.0625 20.386719-19.875c1.707031-1.660156 2.316406-4.144531 1.582031-6.40625zm-33.046875 19.621094c-1.472656 1.433593-2.144531 3.503906-1.796875 5.53125l3.226563 18.816406-16.898438-8.882813c-.910156-.480468-1.910156-.71875-2.910156-.71875-.996094 0-1.996094.242188-2.90625.71875l-16.902344 8.882813 3.230469-18.816406c.347656-2.027344-.324219-4.097657-1.800781-5.53125l-13.671876-13.328125 18.894532-2.746094c2.039062-.292969 3.796875-1.570312 4.707031-3.417969l8.449219-17.121093 8.449218 17.121093c.910157 1.847657 2.671876 3.125 4.707032 3.417969l18.894531 2.746094zm0 0" fill="#402943"/><path d="m431.246094 424.996094h-43.75v-25.003906h6.25c3.453125 0 6.25-2.796876 6.25-6.25v-24.996094c0-3.453125-2.796875-6.25-6.25-6.25h-18.75v-257.339844c7.269531-2.582031 12.5-9.511719 12.5-17.652344 10.339844 0 18.75-8.414062 18.75-18.75 0-10.34375-8.410156-18.75-18.75-18.753906-.003906-8.144531-5.230469-15.070312-12.5-17.652344v-26.097656c.003906-3.453125-2.796875-6.25-6.246094-6.25h-300c-3.449219 0-6.25 2.796875-6.25 6.25v26.097656c-7.269531 2.582032-12.496094 9.507813-12.5 17.652344-10.335938.003906-18.746094 8.410156-18.746094 18.753906 0 10.335938 8.410156 18.75 18.746094 18.75.003906 8.140625 5.230469 15.070313 12.5 17.652344v257.339844h-18.75c-3.449219 0-6.25 2.800781-6.25 6.25v25c0 3.449218 2.800781 6.25 6.25 6.25h6.25v25.003906h-43.75c-3.449219 0-6.25 2.796875-6.25 6.25v24.996094c0 3.453125 2.800781 6.25 6.25 6.25h6.25v31.25c0 3.453125 2.800781 6.25 6.25 6.25h74.949219c.019531 0 .035156.007812.050781.007812h249.996094c.015625 0 .03125-.007812.050781-.007812h74.953125c3.449219 0 6.25-2.796875 6.25-6.25v-31.25h6.246094c3.453125 0 6.25-2.796875 6.25-6.25v-24.996094c0-3.453125-2.796875-6.253906-6.25-6.253906zm-318.746094-412.496094h212.5v349.996094h-212.5zm12.5 475v-50.003906h187.5v50.003906zm-12.5-50v49.996094h-12.5v-49.996094zm149.996094-62.503906v50.003906h-87.5v-50.003906zm-112.496094 0h12.5v49.996094h-12.5zm175 112.5v-49.996094h12.496094v49.996094zm-37.503906-62.503906h-12.5v-49.996094h12.5zm12.5-24.996094h75v24.996094h-75zm-162.496094 24.996094h-75v-24.996094h75zm287.496094 25.003906h-75v-12.5h75zm-37.496094-62.5h-87.5v-12.5h87.5zm-50-25v-279.808594c3.320312 2.984375 7.691406 4.816406 12.496094 4.816406 0 8.140625 5.230468 15.070313 12.503906 17.652344v257.339844zm43.746094-299.996094h6.25c3.445312 0 6.25 2.804688 6.25 6.253906 0 3.445313-2.804688 6.25-6.25 6.25h-6.25c-3.449219 0-6.25 2.796875-6.25 6.25v6.246094c0 3.449219-2.800782 6.253906-6.25 6.253906-3.445313 0-6.25-2.804687-6.25-6.253906v-6.246094c0-3.453125-2.800782-6.25-6.25-6.25h-6.25c-3.445313 0-6.25-2.804687-6.25-6.25 0-3.449218 2.804687-6.253906 6.25-6.253906h6.25c3.449218 0 6.25-2.796875 6.25-6.25v-6.246094c0-3.449218 2.804687-6.253906 6.25-6.253906 3.445312 0 6.25 2.804688 6.25 6.253906v6.246094c0 3.453125 2.800781 6.25 6.25 6.25zm-18.746094-30.15625c-7.269531 2.582031-12.503906 9.511719-12.503906 17.652344-4.804688 0-9.175782 1.832031-12.496094 4.816406v-42.3125h25zm-262.5-19.84375v42.3125c-3.320312-2.980469-7.691406-4.8125-12.496094-4.8125-.003906-8.144531-5.234375-15.070312-12.503906-17.652344v-19.847656zm-43.75 62.503906h-6.246094c-3.445312 0-6.25-2.804687-6.25-6.253906s2.804688-6.253906 6.25-6.253906h6.246094c3.453125 0 6.25-2.796875 6.25-6.25v-6.246094c0-3.445312 2.804688-6.253906 6.253906-6.253906 3.445313 0 6.25 2.804687 6.25 6.253906v6.246094c0 3.453125 2.796875 6.25 6.25 6.25h6.246094c3.445312 0 6.253906 2.804687 6.253906 6.253906 0 3.445312-2.804687 6.253906-6.253906 6.253906h-6.246094c-3.453125 0-6.25 2.796875-6.25 6.25v6.242188c0 3.449218-2.804687 6.253906-6.25 6.253906-3.445312 0-6.253906-2.804688-6.253906-6.253906v-6.242188c0-3.453125-2.800781-6.25-6.25-6.25zm18.75 30.152344c7.269531-2.582031 12.5-9.507812 12.503906-17.652344 4.804688 0 9.175782-1.832031 12.496094-4.816406v279.808594h-25zm-25 269.839844h87.5v12.5h-87.5zm-37.5 62.5h74.996094v12.5h-74.996094zm12.5 25h62.496094v25h-62.496094zm387.5 25h-62.503906v-25h62.503906zm0 0" fill="#402943"/></svg>